<mxfile host="Electron" agent="Mozilla/5.0 (Windows NT 10.0; Win64; x64) AppleWebKit/537.36 (KHTML, like Gecko) draw.io/26.0.9 Chrome/128.0.6613.186 Electron/32.2.5 Safari/537.36" version="26.0.9">
  <diagram name="Страница — 1" id="dPAhRSFWle7cg2Wr7MkF">
    <mxGraphModel dx="3457" dy="2008" grid="1" gridSize="10" guides="1" tooltips="1" connect="1" arrows="1" fold="1" page="1" pageScale="1" pageWidth="827" pageHeight="1169" math="0" shadow="0">
      <root>
        <mxCell id="0" />
        <mxCell id="1" parent="0" />
        <mxCell id="nUDMfvgvwmcfRBi6xDTM-6" value="&lt;font face=&quot;Tahoma&quot;&gt;&lt;b&gt;or&lt;/b&gt;(&lt;i&gt;channels&lt;/i&gt; ...&amp;lt;-&lt;font style=&quot;color: rgb(102, 102, 255);&quot;&gt;chan&lt;/font&gt; struct{})&lt;/font&gt;" style="swimlane;fontStyle=0;childLayout=stackLayout;horizontal=1;startSize=30;horizontalStack=0;resizeParent=1;resizeParentMax=0;resizeLast=0;collapsible=1;marginBottom=0;whiteSpace=wrap;html=1;" vertex="1" parent="1">
          <mxGeometry x="215" y="430" width="230" height="90" as="geometry" />
        </mxCell>
        <mxCell id="nUDMfvgvwmcfRBi6xDTM-7" value="&lt;font face=&quot;Tahoma&quot;&gt;&lt;b&gt;orDone&lt;/b&gt; := make(&lt;font style=&quot;color: rgb(102, 102, 255);&quot;&gt;chan&lt;/font&gt; struct{})&lt;/font&gt;" style="text;strokeColor=none;fillColor=none;align=left;verticalAlign=middle;spacingLeft=4;spacingRight=4;overflow=hidden;points=[[0,0.5],[1,0.5]];portConstraint=eastwest;rotatable=0;whiteSpace=wrap;html=1;" vertex="1" parent="nUDMfvgvwmcfRBi6xDTM-6">
          <mxGeometry y="30" width="230" height="30" as="geometry" />
        </mxCell>
        <mxCell id="nUDMfvgvwmcfRBi6xDTM-8" value="&lt;font face=&quot;Tahoma&quot;&gt;&amp;nbsp;&lt;b&gt;go&lt;/b&gt; func() {...}()&lt;/font&gt;" style="text;strokeColor=none;fillColor=none;align=left;verticalAlign=middle;spacingLeft=4;spacingRight=4;overflow=hidden;points=[[0,0.5],[1,0.5]];portConstraint=eastwest;rotatable=0;whiteSpace=wrap;html=1;" vertex="1" parent="nUDMfvgvwmcfRBi6xDTM-6">
          <mxGeometry y="60" width="230" height="30" as="geometry" />
        </mxCell>
        <mxCell id="nUDMfvgvwmcfRBi6xDTM-10" value="" style="endArrow=classic;html=1;rounded=0;entryX=0.5;entryY=0;entryDx=0;entryDy=0;" edge="1" parent="1">
          <mxGeometry width="50" height="50" relative="1" as="geometry">
            <mxPoint x="249" y="390" as="sourcePoint" />
            <mxPoint x="249" y="430" as="targetPoint" />
          </mxGeometry>
        </mxCell>
        <mxCell id="nUDMfvgvwmcfRBi6xDTM-11" value="&lt;font face=&quot;Tahoma&quot;&gt;&lt;b&gt;Срез из 9-и&lt;/b&gt;&lt;/font&gt;&lt;div&gt;&lt;font face=&quot;Tahoma&quot;&gt;&lt;b&gt;каналов&lt;/b&gt;&lt;/font&gt;&lt;/div&gt;" style="text;html=1;align=center;verticalAlign=middle;whiteSpace=wrap;rounded=0;" vertex="1" parent="1">
          <mxGeometry x="212" y="361" width="78" height="30" as="geometry" />
        </mxCell>
        <mxCell id="nUDMfvgvwmcfRBi6xDTM-12" value="" style="endArrow=classic;html=1;rounded=0;exitX=0.469;exitY=1.022;exitDx=0;exitDy=0;exitPerimeter=0;" edge="1" parent="1">
          <mxGeometry width="50" height="50" relative="1" as="geometry">
            <mxPoint x="320.6999999999998" y="520.0000000000001" as="sourcePoint" />
            <mxPoint x="321" y="549.34" as="targetPoint" />
          </mxGeometry>
        </mxCell>
        <mxCell id="nUDMfvgvwmcfRBi6xDTM-13" value="&lt;font face=&quot;Tahoma&quot;&gt;&lt;b&gt;orDone&lt;/b&gt;&lt;/font&gt;" style="text;html=1;align=center;verticalAlign=middle;whiteSpace=wrap;rounded=0;" vertex="1" parent="1">
          <mxGeometry x="290" y="550" width="60" height="30" as="geometry" />
        </mxCell>
        <mxCell id="nUDMfvgvwmcfRBi6xDTM-14" value="" style="endArrow=classic;html=1;rounded=0;" edge="1" parent="1" source="nUDMfvgvwmcfRBi6xDTM-8">
          <mxGeometry width="50" height="50" relative="1" as="geometry">
            <mxPoint x="370" y="690" as="sourcePoint" />
            <mxPoint x="520" y="507" as="targetPoint" />
          </mxGeometry>
        </mxCell>
        <mxCell id="nUDMfvgvwmcfRBi6xDTM-15" value="&lt;font face=&quot;Tahoma&quot;&gt;&lt;b&gt;func &lt;/b&gt;()&lt;/font&gt;" style="swimlane;fontStyle=0;childLayout=stackLayout;horizontal=1;startSize=30;horizontalStack=0;resizeParent=1;resizeParentMax=0;resizeLast=0;collapsible=1;marginBottom=0;whiteSpace=wrap;html=1;" vertex="1" parent="1">
          <mxGeometry x="520" y="490" width="280" height="170" as="geometry" />
        </mxCell>
        <mxCell id="nUDMfvgvwmcfRBi6xDTM-16" value="&lt;font style=&quot;&quot; face=&quot;Tahoma&quot;&gt;select {&lt;/font&gt;&lt;div&gt;&lt;font face=&quot;Tahoma&quot;&gt;case &amp;lt;- channels[0] &lt;i&gt;&lt;font style=&quot;color: rgb(255, 102, 102);&quot;&gt;(1-ый канал)&lt;/font&gt;&lt;/i&gt;&lt;/font&gt;&lt;/div&gt;&lt;div&gt;&lt;span style=&quot;font-family: Tahoma;&quot;&gt;case &amp;lt;- channels[1]&amp;nbsp;&lt;/span&gt;&lt;i style=&quot;background-color: transparent; color: light-dark(rgb(0, 0, 0), rgb(255, 255, 255)); font-family: Tahoma;&quot;&gt;&lt;font style=&quot;color: rgb(255, 102, 102);&quot;&gt;(2-ой канал)&lt;/font&gt;&lt;/i&gt;&lt;font face=&quot;Tahoma&quot;&gt;&lt;br&gt;&lt;/font&gt;&lt;/div&gt;&lt;div&gt;&lt;span style=&quot;font-family: Tahoma;&quot;&gt;case &amp;lt;- channels[2]&amp;nbsp;&lt;/span&gt;&lt;i style=&quot;background-color: transparent; color: light-dark(rgb(0, 0, 0), rgb(255, 255, 255)); font-family: Tahoma;&quot;&gt;&lt;font style=&quot;color: rgb(255, 102, 102);&quot;&gt;(3-ий канал)&lt;/font&gt;&lt;/i&gt;&lt;span style=&quot;font-family: Tahoma;&quot;&gt;&lt;br&gt;&lt;/span&gt;&lt;/div&gt;&lt;div&gt;&lt;span style=&quot;font-family: Tahoma;&quot;&gt;case &amp;lt;- or(&lt;/span&gt;&lt;span style=&quot;background-color: transparent;&quot;&gt;&lt;font face=&quot;Tahoma&quot;&gt;append(channels[3:], orDone)...&lt;/font&gt;&lt;/span&gt;&lt;span style=&quot;font-family: Tahoma; background-color: transparent; color: light-dark(rgb(0, 0, 0), rgb(255, 255, 255));&quot;&gt;)&lt;/span&gt;&lt;/div&gt;&lt;div&gt;&lt;font style=&quot;&quot; face=&quot;Tahoma&quot;&gt;}&lt;/font&gt;&lt;/div&gt;" style="text;strokeColor=none;fillColor=none;align=left;verticalAlign=middle;spacingLeft=4;spacingRight=4;overflow=hidden;points=[[0,0.5],[1,0.5]];portConstraint=eastwest;rotatable=0;whiteSpace=wrap;html=1;" vertex="1" parent="nUDMfvgvwmcfRBi6xDTM-15">
          <mxGeometry y="30" width="280" height="100" as="geometry" />
        </mxCell>
        <mxCell id="nUDMfvgvwmcfRBi6xDTM-31" value="" style="curved=1;endArrow=classic;html=1;rounded=0;entryX=1;entryY=0.5;entryDx=0;entryDy=0;exitX=0;exitY=0.75;exitDx=0;exitDy=0;exitPerimeter=0;" edge="1" parent="nUDMfvgvwmcfRBi6xDTM-15">
          <mxGeometry width="50" height="50" relative="1" as="geometry">
            <mxPoint x="420" y="185" as="sourcePoint" />
            <mxPoint x="250" y="100" as="targetPoint" />
            <Array as="points">
              <mxPoint x="360" y="185" />
              <mxPoint x="340" y="115" />
              <mxPoint x="310" y="105" />
            </Array>
          </mxGeometry>
        </mxCell>
        <mxCell id="nUDMfvgvwmcfRBi6xDTM-33" value="" style="endArrow=classic;html=1;rounded=0;entryX=0;entryY=0.156;entryDx=0;entryDy=0;entryPerimeter=0;" edge="1" parent="nUDMfvgvwmcfRBi6xDTM-15" target="nUDMfvgvwmcfRBi6xDTM-19">
          <mxGeometry width="50" height="50" relative="1" as="geometry">
            <mxPoint x="232" y="94" as="sourcePoint" />
            <mxPoint x="307" y="95" as="targetPoint" />
          </mxGeometry>
        </mxCell>
        <mxCell id="nUDMfvgvwmcfRBi6xDTM-17" value="&lt;font face=&quot;Tahoma&quot;&gt;--------------------------&lt;b&gt;defer&lt;/b&gt;----------------------------&lt;/font&gt;&lt;div&gt;&lt;font face=&quot;Tahoma&quot;&gt;close(&lt;b&gt;orDone&lt;/b&gt;)&lt;/font&gt;&lt;/div&gt;" style="text;strokeColor=none;fillColor=none;align=left;verticalAlign=middle;spacingLeft=4;spacingRight=4;overflow=hidden;points=[[0,0.5],[1,0.5]];portConstraint=eastwest;rotatable=0;whiteSpace=wrap;html=1;" vertex="1" parent="nUDMfvgvwmcfRBi6xDTM-15">
          <mxGeometry y="130" width="280" height="40" as="geometry" />
        </mxCell>
        <mxCell id="nUDMfvgvwmcfRBi6xDTM-18" value="" style="curved=1;endArrow=classic;html=1;rounded=0;entryX=1;entryY=0.5;entryDx=0;entryDy=0;exitX=0;exitY=0.75;exitDx=0;exitDy=0;exitPerimeter=0;" edge="1" parent="1" source="nUDMfvgvwmcfRBi6xDTM-17" target="nUDMfvgvwmcfRBi6xDTM-13">
          <mxGeometry width="50" height="50" relative="1" as="geometry">
            <mxPoint x="410" y="680" as="sourcePoint" />
            <mxPoint x="460" y="630" as="targetPoint" />
            <Array as="points">
              <mxPoint x="460" y="650" />
              <mxPoint x="440" y="580" />
              <mxPoint x="410" y="570" />
            </Array>
          </mxGeometry>
        </mxCell>
        <mxCell id="nUDMfvgvwmcfRBi6xDTM-19" value="&lt;font face=&quot;Tahoma&quot;&gt;&lt;b&gt;or&lt;/b&gt;(&lt;i&gt;channels&lt;/i&gt; ...&amp;lt;-&lt;font style=&quot;color: rgb(102, 102, 255);&quot;&gt;chan&lt;/font&gt; struct{})&lt;/font&gt;" style="swimlane;fontStyle=0;childLayout=stackLayout;horizontal=1;startSize=30;horizontalStack=0;resizeParent=1;resizeParentMax=0;resizeLast=0;collapsible=1;marginBottom=0;whiteSpace=wrap;html=1;" vertex="1" parent="1">
          <mxGeometry x="880" y="536" width="230" height="90" as="geometry" />
        </mxCell>
        <mxCell id="nUDMfvgvwmcfRBi6xDTM-20" value="&lt;font face=&quot;Tahoma&quot;&gt;&lt;b&gt;orDone*&lt;/b&gt; := make(&lt;font style=&quot;color: rgb(102, 102, 255);&quot;&gt;chan&lt;/font&gt; struct{})&lt;/font&gt;" style="text;strokeColor=none;fillColor=none;align=left;verticalAlign=middle;spacingLeft=4;spacingRight=4;overflow=hidden;points=[[0,0.5],[1,0.5]];portConstraint=eastwest;rotatable=0;whiteSpace=wrap;html=1;" vertex="1" parent="nUDMfvgvwmcfRBi6xDTM-19">
          <mxGeometry y="30" width="230" height="30" as="geometry" />
        </mxCell>
        <mxCell id="nUDMfvgvwmcfRBi6xDTM-21" value="&lt;font face=&quot;Tahoma&quot;&gt;&amp;nbsp;&lt;b&gt;go&lt;/b&gt; func() {...}()&lt;/font&gt;" style="text;strokeColor=none;fillColor=none;align=left;verticalAlign=middle;spacingLeft=4;spacingRight=4;overflow=hidden;points=[[0,0.5],[1,0.5]];portConstraint=eastwest;rotatable=0;whiteSpace=wrap;html=1;" vertex="1" parent="nUDMfvgvwmcfRBi6xDTM-19">
          <mxGeometry y="60" width="230" height="30" as="geometry" />
        </mxCell>
        <mxCell id="nUDMfvgvwmcfRBi6xDTM-22" value="" style="endArrow=classic;html=1;rounded=0;entryX=0.5;entryY=0;entryDx=0;entryDy=0;" edge="1" parent="1">
          <mxGeometry width="50" height="50" relative="1" as="geometry">
            <mxPoint x="906" y="500" as="sourcePoint" />
            <mxPoint x="906" y="536" as="targetPoint" />
          </mxGeometry>
        </mxCell>
        <mxCell id="nUDMfvgvwmcfRBi6xDTM-23" value="&lt;font face=&quot;Tahoma&quot;&gt;&lt;b&gt;Срез из 7-и&lt;/b&gt;&lt;/font&gt;&lt;div&gt;&lt;font face=&quot;Tahoma&quot;&gt;&lt;b&gt;каналов&lt;/b&gt;&lt;/font&gt;&lt;/div&gt;" style="text;html=1;align=center;verticalAlign=middle;whiteSpace=wrap;rounded=0;" vertex="1" parent="1">
          <mxGeometry x="867" y="470" width="83" height="30" as="geometry" />
        </mxCell>
        <mxCell id="nUDMfvgvwmcfRBi6xDTM-24" value="" style="endArrow=classic;html=1;rounded=0;exitX=0.469;exitY=1.022;exitDx=0;exitDy=0;exitPerimeter=0;" edge="1" parent="1">
          <mxGeometry width="50" height="50" relative="1" as="geometry">
            <mxPoint x="985.6999999999998" y="626.0000000000001" as="sourcePoint" />
            <mxPoint x="986" y="655.34" as="targetPoint" />
          </mxGeometry>
        </mxCell>
        <mxCell id="nUDMfvgvwmcfRBi6xDTM-25" value="&lt;font face=&quot;Tahoma&quot;&gt;&lt;b&gt;orDone*&lt;/b&gt;&lt;/font&gt;" style="text;html=1;align=center;verticalAlign=middle;whiteSpace=wrap;rounded=0;" vertex="1" parent="1">
          <mxGeometry x="955" y="656" width="60" height="30" as="geometry" />
        </mxCell>
        <mxCell id="nUDMfvgvwmcfRBi6xDTM-26" value="" style="endArrow=classic;html=1;rounded=0;" edge="1" parent="1" source="nUDMfvgvwmcfRBi6xDTM-21">
          <mxGeometry width="50" height="50" relative="1" as="geometry">
            <mxPoint x="1035" y="796" as="sourcePoint" />
            <mxPoint x="1185" y="613" as="targetPoint" />
          </mxGeometry>
        </mxCell>
        <mxCell id="nUDMfvgvwmcfRBi6xDTM-27" value="&lt;font face=&quot;Tahoma&quot;&gt;&lt;b&gt;func &lt;/b&gt;()&lt;/font&gt;" style="swimlane;fontStyle=0;childLayout=stackLayout;horizontal=1;startSize=30;horizontalStack=0;resizeParent=1;resizeParentMax=0;resizeLast=0;collapsible=1;marginBottom=0;whiteSpace=wrap;html=1;" vertex="1" parent="1">
          <mxGeometry x="1185" y="596" width="280" height="170" as="geometry" />
        </mxCell>
        <mxCell id="nUDMfvgvwmcfRBi6xDTM-28" value="&lt;font style=&quot;&quot; face=&quot;Tahoma&quot;&gt;select {&lt;/font&gt;&lt;div&gt;&lt;font face=&quot;Tahoma&quot;&gt;case &amp;lt;- channels[0]&amp;nbsp;&lt;/font&gt;&lt;i style=&quot;background-color: transparent; color: light-dark(rgb(0, 0, 0), rgb(255, 255, 255)); font-family: Tahoma;&quot;&gt;&lt;font style=&quot;color: rgb(255, 102, 102);&quot;&gt;(4-ый канал)&lt;/font&gt;&lt;/i&gt;&lt;/div&gt;&lt;div&gt;&lt;span style=&quot;font-family: Tahoma;&quot;&gt;case &amp;lt;- channels[0]&amp;nbsp;&lt;/span&gt;&lt;i style=&quot;background-color: transparent; color: light-dark(rgb(0, 0, 0), rgb(255, 255, 255)); font-family: Tahoma;&quot;&gt;&lt;font style=&quot;color: rgb(255, 102, 102);&quot;&gt;(5-ый канал)&lt;/font&gt;&lt;/i&gt;&lt;font face=&quot;Tahoma&quot;&gt;&lt;br&gt;&lt;/font&gt;&lt;/div&gt;&lt;div&gt;&lt;span style=&quot;font-family: Tahoma;&quot;&gt;case &amp;lt;- channels[0]&amp;nbsp;&lt;/span&gt;&lt;i style=&quot;background-color: transparent; color: light-dark(rgb(0, 0, 0), rgb(255, 255, 255)); font-family: Tahoma;&quot;&gt;&lt;font style=&quot;color: rgb(255, 102, 102);&quot;&gt;(6-ой канал)&lt;/font&gt;&lt;/i&gt;&lt;span style=&quot;font-family: Tahoma;&quot;&gt;&lt;br&gt;&lt;/span&gt;&lt;/div&gt;&lt;div&gt;&lt;span style=&quot;font-family: Tahoma;&quot;&gt;case &amp;lt;- or(&lt;/span&gt;&lt;span style=&quot;background-color: transparent;&quot;&gt;&lt;font face=&quot;Tahoma&quot;&gt;append(channels[3:], orDone)...&lt;/font&gt;&lt;/span&gt;&lt;span style=&quot;font-family: Tahoma; background-color: transparent; color: light-dark(rgb(0, 0, 0), rgb(255, 255, 255));&quot;&gt;)&lt;/span&gt;&lt;/div&gt;&lt;div&gt;&lt;font style=&quot;&quot; face=&quot;Tahoma&quot;&gt;}&lt;/font&gt;&lt;/div&gt;" style="text;strokeColor=none;fillColor=none;align=left;verticalAlign=middle;spacingLeft=4;spacingRight=4;overflow=hidden;points=[[0,0.5],[1,0.5]];portConstraint=eastwest;rotatable=0;whiteSpace=wrap;html=1;" vertex="1" parent="nUDMfvgvwmcfRBi6xDTM-27">
          <mxGeometry y="30" width="280" height="100" as="geometry" />
        </mxCell>
        <mxCell id="nUDMfvgvwmcfRBi6xDTM-29" value="&lt;font face=&quot;Tahoma&quot;&gt;--------------------------&lt;b&gt;defer&lt;/b&gt;----------------------------&lt;/font&gt;&lt;div&gt;&lt;font face=&quot;Tahoma&quot;&gt;close(&lt;b&gt;orDone*&lt;/b&gt;)&lt;/font&gt;&lt;/div&gt;" style="text;strokeColor=none;fillColor=none;align=left;verticalAlign=middle;spacingLeft=4;spacingRight=4;overflow=hidden;points=[[0,0.5],[1,0.5]];portConstraint=eastwest;rotatable=0;whiteSpace=wrap;html=1;" vertex="1" parent="nUDMfvgvwmcfRBi6xDTM-27">
          <mxGeometry y="130" width="280" height="40" as="geometry" />
        </mxCell>
        <mxCell id="nUDMfvgvwmcfRBi6xDTM-30" value="" style="curved=1;endArrow=classic;html=1;rounded=0;entryX=1;entryY=0.5;entryDx=0;entryDy=0;exitX=0;exitY=0.75;exitDx=0;exitDy=0;exitPerimeter=0;" edge="1" parent="1" source="nUDMfvgvwmcfRBi6xDTM-29" target="nUDMfvgvwmcfRBi6xDTM-25">
          <mxGeometry width="50" height="50" relative="1" as="geometry">
            <mxPoint x="1075" y="786" as="sourcePoint" />
            <mxPoint x="1125" y="736" as="targetPoint" />
            <Array as="points">
              <mxPoint x="1125" y="756" />
              <mxPoint x="1105" y="686" />
              <mxPoint x="1075" y="676" />
            </Array>
          </mxGeometry>
        </mxCell>
        <mxCell id="nUDMfvgvwmcfRBi6xDTM-34" value="&lt;i style=&quot;forced-color-adjust: none; color: rgb(0, 0, 0); font-family: Tahoma; font-size: 12px; font-variant-ligatures: normal; font-variant-caps: normal; font-weight: 400; letter-spacing: normal; orphans: 2; text-align: left; text-indent: 0px; text-transform: none; widows: 2; word-spacing: 0px; -webkit-text-stroke-width: 0px; white-space: normal; background-color: rgb(251, 251, 251); text-decoration-thickness: initial; text-decoration-style: initial; text-decoration-color: initial;&quot;&gt;&lt;font style=&quot;forced-color-adjust: none; color: rgb(255, 102, 102);&quot;&gt;(1-ый канал)&lt;/font&gt;&lt;/i&gt;&lt;div&gt;&lt;i style=&quot;forced-color-adjust: none; color: rgb(0, 0, 0); font-family: Tahoma; font-size: 12px; font-variant-ligatures: normal; font-variant-caps: normal; font-weight: 400; letter-spacing: normal; orphans: 2; text-align: left; text-indent: 0px; text-transform: none; widows: 2; word-spacing: 0px; -webkit-text-stroke-width: 0px; white-space: normal; background-color: rgb(251, 251, 251); text-decoration-thickness: initial; text-decoration-style: initial; text-decoration-color: initial;&quot;&gt;&lt;font style=&quot;forced-color-adjust: none; color: rgb(255, 102, 102);&quot;&gt;&lt;i style=&quot;color: rgb(0, 0, 0); background-color: rgb(251, 251, 251);&quot;&gt;&lt;font style=&quot;color: rgb(255, 102, 102);&quot;&gt;(2-ой канал)&lt;/font&gt;&lt;/i&gt;&lt;br&gt;&lt;/font&gt;&lt;/i&gt;&lt;/div&gt;&lt;div&gt;&lt;i style=&quot;forced-color-adjust: none; color: rgb(0, 0, 0); font-family: Tahoma; font-size: 12px; font-variant-ligatures: normal; font-variant-caps: normal; font-weight: 400; letter-spacing: normal; orphans: 2; text-align: left; text-indent: 0px; text-transform: none; widows: 2; word-spacing: 0px; -webkit-text-stroke-width: 0px; white-space: normal; background-color: rgb(251, 251, 251); text-decoration-thickness: initial; text-decoration-style: initial; text-decoration-color: initial;&quot;&gt;&lt;font style=&quot;forced-color-adjust: none; color: rgb(255, 102, 102);&quot;&gt;&lt;i style=&quot;color: rgb(0, 0, 0); background-color: rgb(251, 251, 251);&quot;&gt;&lt;font style=&quot;color: rgb(255, 102, 102);&quot;&gt;&lt;i style=&quot;color: rgb(0, 0, 0); background-color: rgb(251, 251, 251);&quot;&gt;&lt;font style=&quot;color: rgb(255, 102, 102);&quot;&gt;(3-ий канал)&lt;/font&gt;&lt;/i&gt;&lt;br&gt;&lt;/font&gt;&lt;/i&gt;&lt;/font&gt;&lt;/i&gt;&lt;/div&gt;&lt;div&gt;&lt;i style=&quot;forced-color-adjust: none; color: rgb(0, 0, 0); font-family: Tahoma; font-size: 12px; font-variant-ligatures: normal; font-variant-caps: normal; font-weight: 400; letter-spacing: normal; orphans: 2; text-align: left; text-indent: 0px; text-transform: none; widows: 2; word-spacing: 0px; -webkit-text-stroke-width: 0px; white-space: normal; background-color: rgb(251, 251, 251); text-decoration-thickness: initial; text-decoration-style: initial; text-decoration-color: initial;&quot;&gt;&lt;font style=&quot;forced-color-adjust: none; color: rgb(255, 102, 102);&quot;&gt;&lt;i style=&quot;color: rgb(0, 0, 0); background-color: rgb(251, 251, 251);&quot;&gt;&lt;font style=&quot;color: rgb(255, 102, 102);&quot;&gt;&lt;i style=&quot;color: rgb(0, 0, 0); background-color: rgb(251, 251, 251);&quot;&gt;&lt;font style=&quot;color: rgb(255, 102, 102);&quot;&gt;&lt;i style=&quot;color: rgb(0, 0, 0); background-color: rgb(251, 251, 251);&quot;&gt;&lt;font style=&quot;color: rgb(255, 102, 102);&quot;&gt;(4-ый канал)&lt;/font&gt;&lt;/i&gt;&lt;br&gt;&lt;/font&gt;&lt;/i&gt;&lt;/font&gt;&lt;/i&gt;&lt;/font&gt;&lt;/i&gt;&lt;/div&gt;&lt;div&gt;&lt;i style=&quot;forced-color-adjust: none; color: rgb(0, 0, 0); font-family: Tahoma; font-size: 12px; font-variant-ligatures: normal; font-variant-caps: normal; font-weight: 400; letter-spacing: normal; orphans: 2; text-align: left; text-indent: 0px; text-transform: none; widows: 2; word-spacing: 0px; -webkit-text-stroke-width: 0px; white-space: normal; background-color: rgb(251, 251, 251); text-decoration-thickness: initial; text-decoration-style: initial; text-decoration-color: initial;&quot;&gt;&lt;font style=&quot;forced-color-adjust: none; color: rgb(255, 102, 102);&quot;&gt;&lt;i style=&quot;color: rgb(0, 0, 0); background-color: rgb(251, 251, 251);&quot;&gt;&lt;font style=&quot;color: rgb(255, 102, 102);&quot;&gt;&lt;i style=&quot;color: rgb(0, 0, 0); background-color: rgb(251, 251, 251);&quot;&gt;&lt;font style=&quot;color: rgb(255, 102, 102);&quot;&gt;&lt;i style=&quot;color: rgb(0, 0, 0); background-color: rgb(251, 251, 251);&quot;&gt;&lt;font style=&quot;color: rgb(255, 102, 102);&quot;&gt;&lt;i style=&quot;color: rgb(0, 0, 0); background-color: rgb(251, 251, 251);&quot;&gt;&lt;font style=&quot;color: rgb(255, 102, 102);&quot;&gt;(5-ый канал)&lt;/font&gt;&lt;/i&gt;&lt;br&gt;&lt;/font&gt;&lt;/i&gt;&lt;/font&gt;&lt;/i&gt;&lt;/font&gt;&lt;/i&gt;&lt;/font&gt;&lt;/i&gt;&lt;/div&gt;&lt;div&gt;&lt;i style=&quot;forced-color-adjust: none; color: rgb(0, 0, 0); font-family: Tahoma; font-size: 12px; font-variant-ligatures: normal; font-variant-caps: normal; font-weight: 400; letter-spacing: normal; orphans: 2; text-align: left; text-indent: 0px; text-transform: none; widows: 2; word-spacing: 0px; -webkit-text-stroke-width: 0px; white-space: normal; background-color: rgb(251, 251, 251); text-decoration-thickness: initial; text-decoration-style: initial; text-decoration-color: initial;&quot;&gt;&lt;font style=&quot;forced-color-adjust: none; color: rgb(255, 102, 102);&quot;&gt;&lt;i style=&quot;color: rgb(0, 0, 0); background-color: rgb(251, 251, 251);&quot;&gt;&lt;font style=&quot;color: rgb(255, 102, 102);&quot;&gt;&lt;i style=&quot;color: rgb(0, 0, 0); background-color: rgb(251, 251, 251);&quot;&gt;&lt;font style=&quot;color: rgb(255, 102, 102);&quot;&gt;&lt;i style=&quot;color: rgb(0, 0, 0); background-color: rgb(251, 251, 251);&quot;&gt;&lt;font style=&quot;color: rgb(255, 102, 102);&quot;&gt;&lt;i style=&quot;color: rgb(0, 0, 0); background-color: rgb(251, 251, 251);&quot;&gt;&lt;font style=&quot;color: rgb(255, 102, 102);&quot;&gt;&lt;i style=&quot;color: rgb(0, 0, 0); background-color: rgb(251, 251, 251);&quot;&gt;&lt;font style=&quot;color: rgb(255, 102, 102);&quot;&gt;(6-ый канал)&lt;/font&gt;&lt;/i&gt;&lt;br&gt;&lt;/font&gt;&lt;/i&gt;&lt;/font&gt;&lt;/i&gt;&lt;/font&gt;&lt;/i&gt;&lt;/font&gt;&lt;/i&gt;&lt;/font&gt;&lt;/i&gt;&lt;/div&gt;&lt;div&gt;&lt;i style=&quot;forced-color-adjust: none; color: rgb(0, 0, 0); font-family: Tahoma; font-size: 12px; font-variant-ligatures: normal; font-variant-caps: normal; font-weight: 400; letter-spacing: normal; orphans: 2; text-align: left; text-indent: 0px; text-transform: none; widows: 2; word-spacing: 0px; -webkit-text-stroke-width: 0px; white-space: normal; background-color: rgb(251, 251, 251); text-decoration-thickness: initial; text-decoration-style: initial; text-decoration-color: initial;&quot;&gt;&lt;font style=&quot;forced-color-adjust: none; color: rgb(255, 102, 102);&quot;&gt;&lt;i style=&quot;color: rgb(0, 0, 0); background-color: rgb(251, 251, 251);&quot;&gt;&lt;font style=&quot;color: rgb(255, 102, 102);&quot;&gt;&lt;i style=&quot;color: rgb(0, 0, 0); background-color: rgb(251, 251, 251);&quot;&gt;&lt;font style=&quot;color: rgb(255, 102, 102);&quot;&gt;&lt;i style=&quot;color: rgb(0, 0, 0); background-color: rgb(251, 251, 251);&quot;&gt;&lt;font style=&quot;color: rgb(255, 102, 102);&quot;&gt;&lt;i style=&quot;color: rgb(0, 0, 0); background-color: rgb(251, 251, 251);&quot;&gt;&lt;font style=&quot;color: rgb(255, 102, 102);&quot;&gt;&lt;i style=&quot;color: rgb(0, 0, 0); background-color: rgb(251, 251, 251);&quot;&gt;&lt;font style=&quot;color: rgb(255, 102, 102);&quot;&gt;&lt;i style=&quot;color: rgb(0, 0, 0); background-color: rgb(251, 251, 251);&quot;&gt;&lt;font style=&quot;color: rgb(255, 102, 102);&quot;&gt;(7-ой канал)&lt;/font&gt;&lt;/i&gt;&lt;br&gt;&lt;/font&gt;&lt;/i&gt;&lt;/font&gt;&lt;/i&gt;&lt;/font&gt;&lt;/i&gt;&lt;/font&gt;&lt;/i&gt;&lt;/font&gt;&lt;/i&gt;&lt;/font&gt;&lt;/i&gt;&lt;/div&gt;&lt;div&gt;&lt;i style=&quot;forced-color-adjust: none; color: rgb(0, 0, 0); font-family: Tahoma; font-size: 12px; font-variant-ligatures: normal; font-variant-caps: normal; font-weight: 400; letter-spacing: normal; orphans: 2; text-align: left; text-indent: 0px; text-transform: none; widows: 2; word-spacing: 0px; -webkit-text-stroke-width: 0px; white-space: normal; background-color: rgb(251, 251, 251); text-decoration-thickness: initial; text-decoration-style: initial; text-decoration-color: initial;&quot;&gt;&lt;font style=&quot;forced-color-adjust: none; color: rgb(255, 102, 102);&quot;&gt;&lt;i style=&quot;color: rgb(0, 0, 0); background-color: rgb(251, 251, 251);&quot;&gt;&lt;font style=&quot;color: rgb(255, 102, 102);&quot;&gt;&lt;i style=&quot;color: rgb(0, 0, 0); background-color: rgb(251, 251, 251);&quot;&gt;&lt;font style=&quot;color: rgb(255, 102, 102);&quot;&gt;&lt;i style=&quot;color: rgb(0, 0, 0); background-color: rgb(251, 251, 251);&quot;&gt;&lt;font style=&quot;color: rgb(255, 102, 102);&quot;&gt;&lt;i style=&quot;color: rgb(0, 0, 0); background-color: rgb(251, 251, 251);&quot;&gt;&lt;font style=&quot;color: rgb(255, 102, 102);&quot;&gt;&lt;i style=&quot;color: rgb(0, 0, 0); background-color: rgb(251, 251, 251);&quot;&gt;&lt;font style=&quot;color: rgb(255, 102, 102);&quot;&gt;&lt;i style=&quot;color: rgb(0, 0, 0); background-color: rgb(251, 251, 251);&quot;&gt;&lt;font style=&quot;color: rgb(255, 102, 102);&quot;&gt;&lt;i style=&quot;color: rgb(0, 0, 0); background-color: rgb(251, 251, 251);&quot;&gt;&lt;font style=&quot;color: rgb(255, 102, 102);&quot;&gt;(8-ой канал)&lt;/font&gt;&lt;/i&gt;&lt;br&gt;&lt;/font&gt;&lt;/i&gt;&lt;/font&gt;&lt;/i&gt;&lt;/font&gt;&lt;/i&gt;&lt;/font&gt;&lt;/i&gt;&lt;/font&gt;&lt;/i&gt;&lt;/font&gt;&lt;/i&gt;&lt;/font&gt;&lt;/i&gt;&lt;/div&gt;&lt;div&gt;&lt;i style=&quot;forced-color-adjust: none; color: rgb(0, 0, 0); font-family: Tahoma; font-size: 12px; font-variant-ligatures: normal; font-variant-caps: normal; font-weight: 400; letter-spacing: normal; orphans: 2; text-align: left; text-indent: 0px; text-transform: none; widows: 2; word-spacing: 0px; -webkit-text-stroke-width: 0px; white-space: normal; background-color: rgb(251, 251, 251); text-decoration-thickness: initial; text-decoration-style: initial; text-decoration-color: initial;&quot;&gt;&lt;font style=&quot;forced-color-adjust: none; color: rgb(255, 102, 102);&quot;&gt;&lt;i style=&quot;color: rgb(0, 0, 0); background-color: rgb(251, 251, 251);&quot;&gt;&lt;font style=&quot;color: rgb(255, 102, 102);&quot;&gt;&lt;i style=&quot;color: rgb(0, 0, 0); background-color: rgb(251, 251, 251);&quot;&gt;&lt;font style=&quot;color: rgb(255, 102, 102);&quot;&gt;&lt;i style=&quot;color: rgb(0, 0, 0); background-color: rgb(251, 251, 251);&quot;&gt;&lt;font style=&quot;color: rgb(255, 102, 102);&quot;&gt;&lt;i style=&quot;color: rgb(0, 0, 0); background-color: rgb(251, 251, 251);&quot;&gt;&lt;font style=&quot;color: rgb(255, 102, 102);&quot;&gt;&lt;i style=&quot;color: rgb(0, 0, 0); background-color: rgb(251, 251, 251);&quot;&gt;&lt;font style=&quot;color: rgb(255, 102, 102);&quot;&gt;&lt;i style=&quot;color: rgb(0, 0, 0); background-color: rgb(251, 251, 251);&quot;&gt;&lt;font style=&quot;color: rgb(255, 102, 102);&quot;&gt;&lt;i style=&quot;color: rgb(0, 0, 0); background-color: rgb(251, 251, 251);&quot;&gt;&lt;font style=&quot;color: rgb(255, 102, 102);&quot;&gt;&lt;i style=&quot;color: rgb(0, 0, 0); background-color: rgb(251, 251, 251);&quot;&gt;&lt;font style=&quot;color: rgb(255, 102, 102);&quot;&gt;&lt;i style=&quot;color: rgb(0, 0, 0); background-color: rgb(251, 251, 251);&quot;&gt;&lt;font style=&quot;color: rgb(255, 102, 102);&quot;&gt;&lt;i style=&quot;color: rgb(0, 0, 0); background-color: rgb(251, 251, 251);&quot;&gt;&lt;font style=&quot;color: rgb(255, 102, 102);&quot;&gt;&lt;i style=&quot;color: rgb(0, 0, 0); background-color: rgb(251, 251, 251);&quot;&gt;&lt;font style=&quot;color: rgb(255, 102, 102);&quot;&gt;(9-ый канал)&lt;/font&gt;&lt;/i&gt;&lt;/font&gt;&lt;/i&gt;&lt;/font&gt;&lt;/i&gt;&lt;/font&gt;&lt;/i&gt;&lt;br&gt;&lt;/font&gt;&lt;/i&gt;&lt;/font&gt;&lt;/i&gt;&lt;/font&gt;&lt;/i&gt;&lt;/font&gt;&lt;/i&gt;&lt;/font&gt;&lt;/i&gt;&lt;/font&gt;&lt;/i&gt;&lt;/font&gt;&lt;/i&gt;&lt;/font&gt;&lt;/i&gt;&lt;/div&gt;" style="text;whiteSpace=wrap;html=1;" vertex="1" parent="1">
          <mxGeometry x="310" y="270" width="80" height="150" as="geometry" />
        </mxCell>
        <mxCell id="nUDMfvgvwmcfRBi6xDTM-35" value="&lt;i style=&quot;color: rgb(0, 0, 0); font-family: Tahoma; background-color: rgb(251, 251, 251);&quot;&gt;&lt;font style=&quot;color: rgb(255, 102, 102);&quot;&gt;&lt;i style=&quot;color: rgb(0, 0, 0); background-color: rgb(251, 251, 251);&quot;&gt;&lt;font style=&quot;color: rgb(255, 102, 102);&quot;&gt;&lt;i style=&quot;color: rgb(0, 0, 0); background-color: rgb(251, 251, 251);&quot;&gt;&lt;font style=&quot;color: rgb(255, 102, 102);&quot;&gt;&lt;i style=&quot;color: rgb(0, 0, 0); background-color: rgb(251, 251, 251);&quot;&gt;&lt;font style=&quot;color: rgb(255, 102, 102);&quot;&gt;(4-ый канал)&lt;/font&gt;&lt;/i&gt;&lt;/font&gt;&lt;/i&gt;&lt;/font&gt;&lt;/i&gt;&lt;/font&gt;&lt;/i&gt;&lt;div&gt;&lt;i style=&quot;forced-color-adjust: none; color: rgb(0, 0, 0); font-family: Tahoma; font-size: 12px; font-variant-ligatures: normal; font-variant-caps: normal; font-weight: 400; letter-spacing: normal; orphans: 2; text-align: left; text-indent: 0px; text-transform: none; widows: 2; word-spacing: 0px; -webkit-text-stroke-width: 0px; white-space: normal; background-color: rgb(251, 251, 251); text-decoration-thickness: initial; text-decoration-style: initial; text-decoration-color: initial;&quot;&gt;&lt;font style=&quot;forced-color-adjust: none; color: rgb(255, 102, 102);&quot;&gt;&lt;i style=&quot;color: rgb(0, 0, 0); background-color: rgb(251, 251, 251);&quot;&gt;&lt;font style=&quot;color: rgb(255, 102, 102);&quot;&gt;&lt;i style=&quot;color: rgb(0, 0, 0); background-color: rgb(251, 251, 251);&quot;&gt;&lt;font style=&quot;color: rgb(255, 102, 102);&quot;&gt;&lt;i style=&quot;color: rgb(0, 0, 0); background-color: rgb(251, 251, 251);&quot;&gt;&lt;font style=&quot;color: rgb(255, 102, 102);&quot;&gt;&lt;i style=&quot;color: rgb(0, 0, 0); background-color: rgb(251, 251, 251);&quot;&gt;&lt;font style=&quot;color: rgb(255, 102, 102);&quot;&gt;(5-ый канал)&lt;/font&gt;&lt;/i&gt;&lt;br&gt;&lt;/font&gt;&lt;/i&gt;&lt;/font&gt;&lt;/i&gt;&lt;/font&gt;&lt;/i&gt;&lt;/font&gt;&lt;/i&gt;&lt;/div&gt;&lt;div&gt;&lt;i style=&quot;forced-color-adjust: none; color: rgb(0, 0, 0); font-family: Tahoma; font-size: 12px; font-variant-ligatures: normal; font-variant-caps: normal; font-weight: 400; letter-spacing: normal; orphans: 2; text-align: left; text-indent: 0px; text-transform: none; widows: 2; word-spacing: 0px; -webkit-text-stroke-width: 0px; white-space: normal; background-color: rgb(251, 251, 251); text-decoration-thickness: initial; text-decoration-style: initial; text-decoration-color: initial;&quot;&gt;&lt;font style=&quot;forced-color-adjust: none; color: rgb(255, 102, 102);&quot;&gt;&lt;i style=&quot;color: rgb(0, 0, 0); background-color: rgb(251, 251, 251);&quot;&gt;&lt;font style=&quot;color: rgb(255, 102, 102);&quot;&gt;&lt;i style=&quot;color: rgb(0, 0, 0); background-color: rgb(251, 251, 251);&quot;&gt;&lt;font style=&quot;color: rgb(255, 102, 102);&quot;&gt;&lt;i style=&quot;color: rgb(0, 0, 0); background-color: rgb(251, 251, 251);&quot;&gt;&lt;font style=&quot;color: rgb(255, 102, 102);&quot;&gt;&lt;i style=&quot;color: rgb(0, 0, 0); background-color: rgb(251, 251, 251);&quot;&gt;&lt;font style=&quot;color: rgb(255, 102, 102);&quot;&gt;&lt;i style=&quot;color: rgb(0, 0, 0); background-color: rgb(251, 251, 251);&quot;&gt;&lt;font style=&quot;color: rgb(255, 102, 102);&quot;&gt;(6-ый канал)&lt;/font&gt;&lt;/i&gt;&lt;br&gt;&lt;/font&gt;&lt;/i&gt;&lt;/font&gt;&lt;/i&gt;&lt;/font&gt;&lt;/i&gt;&lt;/font&gt;&lt;/i&gt;&lt;/font&gt;&lt;/i&gt;&lt;/div&gt;&lt;div&gt;&lt;i style=&quot;forced-color-adjust: none; color: rgb(0, 0, 0); font-family: Tahoma; font-size: 12px; font-variant-ligatures: normal; font-variant-caps: normal; font-weight: 400; letter-spacing: normal; orphans: 2; text-align: left; text-indent: 0px; text-transform: none; widows: 2; word-spacing: 0px; -webkit-text-stroke-width: 0px; white-space: normal; background-color: rgb(251, 251, 251); text-decoration-thickness: initial; text-decoration-style: initial; text-decoration-color: initial;&quot;&gt;&lt;font style=&quot;forced-color-adjust: none; color: rgb(255, 102, 102);&quot;&gt;&lt;i style=&quot;color: rgb(0, 0, 0); background-color: rgb(251, 251, 251);&quot;&gt;&lt;font style=&quot;color: rgb(255, 102, 102);&quot;&gt;&lt;i style=&quot;color: rgb(0, 0, 0); background-color: rgb(251, 251, 251);&quot;&gt;&lt;font style=&quot;color: rgb(255, 102, 102);&quot;&gt;&lt;i style=&quot;color: rgb(0, 0, 0); background-color: rgb(251, 251, 251);&quot;&gt;&lt;font style=&quot;color: rgb(255, 102, 102);&quot;&gt;&lt;i style=&quot;color: rgb(0, 0, 0); background-color: rgb(251, 251, 251);&quot;&gt;&lt;font style=&quot;color: rgb(255, 102, 102);&quot;&gt;&lt;i style=&quot;color: rgb(0, 0, 0); background-color: rgb(251, 251, 251);&quot;&gt;&lt;font style=&quot;color: rgb(255, 102, 102);&quot;&gt;&lt;i style=&quot;color: rgb(0, 0, 0); background-color: rgb(251, 251, 251);&quot;&gt;&lt;font style=&quot;color: rgb(255, 102, 102);&quot;&gt;(7-ой канал)&lt;/font&gt;&lt;/i&gt;&lt;br&gt;&lt;/font&gt;&lt;/i&gt;&lt;/font&gt;&lt;/i&gt;&lt;/font&gt;&lt;/i&gt;&lt;/font&gt;&lt;/i&gt;&lt;/font&gt;&lt;/i&gt;&lt;/font&gt;&lt;/i&gt;&lt;/div&gt;&lt;div&gt;&lt;i style=&quot;forced-color-adjust: none; color: rgb(0, 0, 0); font-family: Tahoma; font-size: 12px; font-variant-ligatures: normal; font-variant-caps: normal; font-weight: 400; letter-spacing: normal; orphans: 2; text-align: left; text-indent: 0px; text-transform: none; widows: 2; word-spacing: 0px; -webkit-text-stroke-width: 0px; white-space: normal; background-color: rgb(251, 251, 251); text-decoration-thickness: initial; text-decoration-style: initial; text-decoration-color: initial;&quot;&gt;&lt;font style=&quot;forced-color-adjust: none; color: rgb(255, 102, 102);&quot;&gt;&lt;i style=&quot;color: rgb(0, 0, 0); background-color: rgb(251, 251, 251);&quot;&gt;&lt;font style=&quot;color: rgb(255, 102, 102);&quot;&gt;&lt;i style=&quot;color: rgb(0, 0, 0); background-color: rgb(251, 251, 251);&quot;&gt;&lt;font style=&quot;color: rgb(255, 102, 102);&quot;&gt;&lt;i style=&quot;color: rgb(0, 0, 0); background-color: rgb(251, 251, 251);&quot;&gt;&lt;font style=&quot;color: rgb(255, 102, 102);&quot;&gt;&lt;i style=&quot;color: rgb(0, 0, 0); background-color: rgb(251, 251, 251);&quot;&gt;&lt;font style=&quot;color: rgb(255, 102, 102);&quot;&gt;&lt;i style=&quot;color: rgb(0, 0, 0); background-color: rgb(251, 251, 251);&quot;&gt;&lt;font style=&quot;color: rgb(255, 102, 102);&quot;&gt;&lt;i style=&quot;color: rgb(0, 0, 0); background-color: rgb(251, 251, 251);&quot;&gt;&lt;font style=&quot;color: rgb(255, 102, 102);&quot;&gt;&lt;i style=&quot;color: rgb(0, 0, 0); background-color: rgb(251, 251, 251);&quot;&gt;&lt;font style=&quot;color: rgb(255, 102, 102);&quot;&gt;(8-ой канал)&lt;/font&gt;&lt;/i&gt;&lt;br&gt;&lt;/font&gt;&lt;/i&gt;&lt;/font&gt;&lt;/i&gt;&lt;/font&gt;&lt;/i&gt;&lt;/font&gt;&lt;/i&gt;&lt;/font&gt;&lt;/i&gt;&lt;/font&gt;&lt;/i&gt;&lt;/font&gt;&lt;/i&gt;&lt;/div&gt;&lt;div&gt;&lt;i style=&quot;forced-color-adjust: none; color: rgb(0, 0, 0); font-family: Tahoma; font-size: 12px; font-variant-ligatures: normal; font-variant-caps: normal; font-weight: 400; letter-spacing: normal; orphans: 2; text-align: left; text-indent: 0px; text-transform: none; widows: 2; word-spacing: 0px; -webkit-text-stroke-width: 0px; white-space: normal; background-color: rgb(251, 251, 251); text-decoration-thickness: initial; text-decoration-style: initial; text-decoration-color: initial;&quot;&gt;&lt;font style=&quot;forced-color-adjust: none; color: rgb(255, 102, 102);&quot;&gt;&lt;i style=&quot;color: rgb(0, 0, 0); background-color: rgb(251, 251, 251);&quot;&gt;&lt;font style=&quot;color: rgb(255, 102, 102);&quot;&gt;&lt;i style=&quot;color: rgb(0, 0, 0); background-color: rgb(251, 251, 251);&quot;&gt;&lt;font style=&quot;color: rgb(255, 102, 102);&quot;&gt;&lt;i style=&quot;color: rgb(0, 0, 0); background-color: rgb(251, 251, 251);&quot;&gt;&lt;font style=&quot;color: rgb(255, 102, 102);&quot;&gt;&lt;i style=&quot;color: rgb(0, 0, 0); background-color: rgb(251, 251, 251);&quot;&gt;&lt;font style=&quot;color: rgb(255, 102, 102);&quot;&gt;&lt;i style=&quot;color: rgb(0, 0, 0); background-color: rgb(251, 251, 251);&quot;&gt;&lt;font style=&quot;color: rgb(255, 102, 102);&quot;&gt;&lt;i style=&quot;color: rgb(0, 0, 0); background-color: rgb(251, 251, 251);&quot;&gt;&lt;font style=&quot;color: rgb(255, 102, 102);&quot;&gt;&lt;i style=&quot;color: rgb(0, 0, 0); background-color: rgb(251, 251, 251);&quot;&gt;&lt;font style=&quot;color: rgb(255, 102, 102);&quot;&gt;&lt;i style=&quot;color: rgb(0, 0, 0); background-color: rgb(251, 251, 251);&quot;&gt;&lt;font style=&quot;color: rgb(255, 102, 102);&quot;&gt;&lt;i style=&quot;color: rgb(0, 0, 0); background-color: rgb(251, 251, 251);&quot;&gt;&lt;font style=&quot;color: rgb(255, 102, 102);&quot;&gt;&lt;i style=&quot;color: rgb(0, 0, 0); background-color: rgb(251, 251, 251);&quot;&gt;&lt;font style=&quot;color: rgb(255, 102, 102);&quot;&gt;&lt;i style=&quot;color: rgb(0, 0, 0); background-color: rgb(251, 251, 251);&quot;&gt;&lt;font style=&quot;color: rgb(255, 102, 102);&quot;&gt;(9-ый канал)&lt;/font&gt;&lt;/i&gt;&lt;/font&gt;&lt;/i&gt;&lt;/font&gt;&lt;/i&gt;&lt;/font&gt;&lt;/i&gt;&lt;br&gt;&lt;/font&gt;&lt;/i&gt;&lt;/font&gt;&lt;/i&gt;&lt;/font&gt;&lt;/i&gt;&lt;/font&gt;&lt;/i&gt;&lt;/font&gt;&lt;/i&gt;&lt;/font&gt;&lt;/i&gt;&lt;/font&gt;&lt;/i&gt;&lt;/font&gt;&lt;/i&gt;&lt;/div&gt;&lt;div&gt;&lt;font face=&quot;Tahoma&quot; color=&quot;#ff6666&quot;&gt;&lt;i&gt;orDone&lt;/i&gt;&lt;/font&gt;&lt;/div&gt;" style="text;whiteSpace=wrap;html=1;" vertex="1" parent="1">
          <mxGeometry x="980" y="410" width="80" height="110" as="geometry" />
        </mxCell>
        <mxCell id="nUDMfvgvwmcfRBi6xDTM-38" value="" style="curved=1;endArrow=classic;html=1;rounded=0;entryX=1;entryY=0.5;entryDx=0;entryDy=0;exitX=0;exitY=0.75;exitDx=0;exitDy=0;exitPerimeter=0;" edge="1" parent="1">
          <mxGeometry width="50" height="50" relative="1" as="geometry">
            <mxPoint x="1608" y="785" as="sourcePoint" />
            <mxPoint x="1438" y="700" as="targetPoint" />
            <Array as="points">
              <mxPoint x="1548" y="785" />
              <mxPoint x="1528" y="715" />
              <mxPoint x="1498" y="705" />
            </Array>
          </mxGeometry>
        </mxCell>
        <mxCell id="nUDMfvgvwmcfRBi6xDTM-39" value="" style="endArrow=classic;html=1;rounded=0;entryX=0;entryY=0.156;entryDx=0;entryDy=0;entryPerimeter=0;" edge="1" parent="1" target="nUDMfvgvwmcfRBi6xDTM-40">
          <mxGeometry width="50" height="50" relative="1" as="geometry">
            <mxPoint x="1420" y="694" as="sourcePoint" />
            <mxPoint x="1495" y="695" as="targetPoint" />
          </mxGeometry>
        </mxCell>
        <mxCell id="nUDMfvgvwmcfRBi6xDTM-40" value="&lt;font face=&quot;Tahoma&quot;&gt;&lt;b&gt;or&lt;/b&gt;(&lt;i&gt;channels&lt;/i&gt; ...&amp;lt;-&lt;font style=&quot;color: rgb(102, 102, 255);&quot;&gt;chan&lt;/font&gt; struct{})&lt;/font&gt;" style="swimlane;fontStyle=0;childLayout=stackLayout;horizontal=1;startSize=30;horizontalStack=0;resizeParent=1;resizeParentMax=0;resizeLast=0;collapsible=1;marginBottom=0;whiteSpace=wrap;html=1;" vertex="1" parent="1">
          <mxGeometry x="1548" y="646" width="230" height="90" as="geometry" />
        </mxCell>
        <mxCell id="nUDMfvgvwmcfRBi6xDTM-41" value="&lt;font face=&quot;Tahoma&quot;&gt;&lt;b&gt;orDone**&lt;/b&gt; := make(&lt;font style=&quot;color: rgb(102, 102, 255);&quot;&gt;chan&lt;/font&gt; struct{})&lt;/font&gt;" style="text;strokeColor=none;fillColor=none;align=left;verticalAlign=middle;spacingLeft=4;spacingRight=4;overflow=hidden;points=[[0,0.5],[1,0.5]];portConstraint=eastwest;rotatable=0;whiteSpace=wrap;html=1;" vertex="1" parent="nUDMfvgvwmcfRBi6xDTM-40">
          <mxGeometry y="30" width="230" height="30" as="geometry" />
        </mxCell>
        <mxCell id="nUDMfvgvwmcfRBi6xDTM-42" value="&lt;font face=&quot;Tahoma&quot;&gt;&amp;nbsp;&lt;b&gt;go&lt;/b&gt; func() {...}()&lt;/font&gt;" style="text;strokeColor=none;fillColor=none;align=left;verticalAlign=middle;spacingLeft=4;spacingRight=4;overflow=hidden;points=[[0,0.5],[1,0.5]];portConstraint=eastwest;rotatable=0;whiteSpace=wrap;html=1;" vertex="1" parent="nUDMfvgvwmcfRBi6xDTM-40">
          <mxGeometry y="60" width="230" height="30" as="geometry" />
        </mxCell>
        <mxCell id="nUDMfvgvwmcfRBi6xDTM-43" value="" style="endArrow=classic;html=1;rounded=0;entryX=0.5;entryY=0;entryDx=0;entryDy=0;" edge="1" parent="1">
          <mxGeometry width="50" height="50" relative="1" as="geometry">
            <mxPoint x="1574" y="610" as="sourcePoint" />
            <mxPoint x="1574" y="646" as="targetPoint" />
          </mxGeometry>
        </mxCell>
        <mxCell id="nUDMfvgvwmcfRBi6xDTM-44" value="&lt;font face=&quot;Tahoma&quot;&gt;&lt;b&gt;Срез из 5-и&lt;/b&gt;&lt;/font&gt;&lt;div&gt;&lt;font face=&quot;Tahoma&quot;&gt;&lt;b&gt;каналов&lt;/b&gt;&lt;/font&gt;&lt;/div&gt;" style="text;html=1;align=center;verticalAlign=middle;whiteSpace=wrap;rounded=0;" vertex="1" parent="1">
          <mxGeometry x="1535" y="580" width="83" height="30" as="geometry" />
        </mxCell>
        <mxCell id="nUDMfvgvwmcfRBi6xDTM-45" value="" style="endArrow=classic;html=1;rounded=0;exitX=0.469;exitY=1.022;exitDx=0;exitDy=0;exitPerimeter=0;" edge="1" parent="1">
          <mxGeometry width="50" height="50" relative="1" as="geometry">
            <mxPoint x="1653.6999999999998" y="736.0000000000001" as="sourcePoint" />
            <mxPoint x="1654" y="765.34" as="targetPoint" />
          </mxGeometry>
        </mxCell>
        <mxCell id="nUDMfvgvwmcfRBi6xDTM-46" value="&lt;font face=&quot;Tahoma&quot;&gt;&lt;b&gt;orDone**&lt;/b&gt;&lt;/font&gt;" style="text;html=1;align=center;verticalAlign=middle;whiteSpace=wrap;rounded=0;" vertex="1" parent="1">
          <mxGeometry x="1623" y="766" width="60" height="30" as="geometry" />
        </mxCell>
        <mxCell id="nUDMfvgvwmcfRBi6xDTM-47" value="" style="endArrow=classic;html=1;rounded=0;" edge="1" parent="1" source="nUDMfvgvwmcfRBi6xDTM-42">
          <mxGeometry width="50" height="50" relative="1" as="geometry">
            <mxPoint x="1703" y="906" as="sourcePoint" />
            <mxPoint x="1853" y="723" as="targetPoint" />
          </mxGeometry>
        </mxCell>
        <mxCell id="nUDMfvgvwmcfRBi6xDTM-48" value="&lt;font face=&quot;Tahoma&quot;&gt;&lt;b&gt;func &lt;/b&gt;()&lt;/font&gt;" style="swimlane;fontStyle=0;childLayout=stackLayout;horizontal=1;startSize=30;horizontalStack=0;resizeParent=1;resizeParentMax=0;resizeLast=0;collapsible=1;marginBottom=0;whiteSpace=wrap;html=1;" vertex="1" parent="1">
          <mxGeometry x="1853" y="706" width="280" height="170" as="geometry" />
        </mxCell>
        <mxCell id="nUDMfvgvwmcfRBi6xDTM-49" value="&lt;font style=&quot;&quot; face=&quot;Tahoma&quot;&gt;select {&lt;/font&gt;&lt;div&gt;&lt;font face=&quot;Tahoma&quot;&gt;case &amp;lt;- channels[0]&amp;nbsp;&lt;/font&gt;&lt;i style=&quot;background-color: transparent; color: light-dark(rgb(0, 0, 0), rgb(255, 255, 255)); font-family: Tahoma;&quot;&gt;&lt;font style=&quot;color: rgb(255, 102, 102);&quot;&gt;(7-ый канал)&lt;/font&gt;&lt;/i&gt;&lt;/div&gt;&lt;div&gt;&lt;span style=&quot;font-family: Tahoma;&quot;&gt;case &amp;lt;- channels[0]&amp;nbsp;&lt;/span&gt;&lt;i style=&quot;background-color: transparent; color: light-dark(rgb(0, 0, 0), rgb(255, 255, 255)); font-family: Tahoma;&quot;&gt;&lt;font style=&quot;color: rgb(255, 102, 102);&quot;&gt;(8-ый канал)&lt;/font&gt;&lt;/i&gt;&lt;font face=&quot;Tahoma&quot;&gt;&lt;br&gt;&lt;/font&gt;&lt;/div&gt;&lt;div&gt;&lt;span style=&quot;font-family: Tahoma;&quot;&gt;case &amp;lt;- channels[0]&amp;nbsp;&lt;/span&gt;&lt;i style=&quot;background-color: transparent; color: light-dark(rgb(0, 0, 0), rgb(255, 255, 255)); font-family: Tahoma;&quot;&gt;&lt;font style=&quot;color: rgb(255, 102, 102);&quot;&gt;(9-ой канал)&lt;/font&gt;&lt;/i&gt;&lt;span style=&quot;font-family: Tahoma;&quot;&gt;&lt;br&gt;&lt;/span&gt;&lt;/div&gt;&lt;div&gt;&lt;span style=&quot;font-family: Tahoma;&quot;&gt;case &amp;lt;- or(&lt;/span&gt;&lt;span style=&quot;background-color: transparent;&quot;&gt;&lt;font face=&quot;Tahoma&quot;&gt;append(channels[3:], orDone)...&lt;/font&gt;&lt;/span&gt;&lt;span style=&quot;font-family: Tahoma; background-color: transparent; color: light-dark(rgb(0, 0, 0), rgb(255, 255, 255));&quot;&gt;)&lt;/span&gt;&lt;/div&gt;&lt;div&gt;&lt;font style=&quot;&quot; face=&quot;Tahoma&quot;&gt;}&lt;/font&gt;&lt;/div&gt;" style="text;strokeColor=none;fillColor=none;align=left;verticalAlign=middle;spacingLeft=4;spacingRight=4;overflow=hidden;points=[[0,0.5],[1,0.5]];portConstraint=eastwest;rotatable=0;whiteSpace=wrap;html=1;" vertex="1" parent="nUDMfvgvwmcfRBi6xDTM-48">
          <mxGeometry y="30" width="280" height="100" as="geometry" />
        </mxCell>
        <mxCell id="nUDMfvgvwmcfRBi6xDTM-50" value="&lt;font face=&quot;Tahoma&quot;&gt;--------------------------&lt;b&gt;defer&lt;/b&gt;----------------------------&lt;/font&gt;&lt;div&gt;&lt;font face=&quot;Tahoma&quot;&gt;close(&lt;b&gt;orDone**&lt;/b&gt;)&lt;/font&gt;&lt;/div&gt;" style="text;strokeColor=none;fillColor=none;align=left;verticalAlign=middle;spacingLeft=4;spacingRight=4;overflow=hidden;points=[[0,0.5],[1,0.5]];portConstraint=eastwest;rotatable=0;whiteSpace=wrap;html=1;" vertex="1" parent="nUDMfvgvwmcfRBi6xDTM-48">
          <mxGeometry y="130" width="280" height="40" as="geometry" />
        </mxCell>
        <mxCell id="nUDMfvgvwmcfRBi6xDTM-51" value="" style="curved=1;endArrow=classic;html=1;rounded=0;entryX=1;entryY=0.5;entryDx=0;entryDy=0;exitX=0;exitY=0.75;exitDx=0;exitDy=0;exitPerimeter=0;" edge="1" parent="1" source="nUDMfvgvwmcfRBi6xDTM-50" target="nUDMfvgvwmcfRBi6xDTM-46">
          <mxGeometry width="50" height="50" relative="1" as="geometry">
            <mxPoint x="1743" y="896" as="sourcePoint" />
            <mxPoint x="1793" y="846" as="targetPoint" />
            <Array as="points">
              <mxPoint x="1793" y="866" />
              <mxPoint x="1773" y="796" />
              <mxPoint x="1743" y="786" />
            </Array>
          </mxGeometry>
        </mxCell>
        <mxCell id="nUDMfvgvwmcfRBi6xDTM-52" value="&lt;div&gt;&lt;i style=&quot;color: rgb(0, 0, 0); font-family: Tahoma; background-color: rgb(251, 251, 251);&quot;&gt;&lt;font style=&quot;color: rgb(255, 102, 102);&quot;&gt;&lt;i style=&quot;color: rgb(0, 0, 0); background-color: rgb(251, 251, 251);&quot;&gt;&lt;font style=&quot;color: rgb(255, 102, 102);&quot;&gt;&lt;i style=&quot;color: rgb(0, 0, 0); background-color: rgb(251, 251, 251);&quot;&gt;&lt;font style=&quot;color: rgb(255, 102, 102);&quot;&gt;&lt;i style=&quot;color: rgb(0, 0, 0); background-color: rgb(251, 251, 251);&quot;&gt;&lt;font style=&quot;color: rgb(255, 102, 102);&quot;&gt;&lt;i style=&quot;color: rgb(0, 0, 0); background-color: rgb(251, 251, 251);&quot;&gt;&lt;font style=&quot;color: rgb(255, 102, 102);&quot;&gt;&lt;i style=&quot;color: rgb(0, 0, 0); background-color: rgb(251, 251, 251);&quot;&gt;&lt;font style=&quot;color: rgb(255, 102, 102);&quot;&gt;&lt;i style=&quot;color: rgb(0, 0, 0); background-color: rgb(251, 251, 251);&quot;&gt;&lt;font style=&quot;color: rgb(255, 102, 102);&quot;&gt;(7-ой канал)&lt;/font&gt;&lt;/i&gt;&lt;/font&gt;&lt;/i&gt;&lt;/font&gt;&lt;/i&gt;&lt;/font&gt;&lt;/i&gt;&lt;/font&gt;&lt;/i&gt;&lt;/font&gt;&lt;/i&gt;&lt;/font&gt;&lt;/i&gt;&lt;br&gt;&lt;/div&gt;&lt;div&gt;&lt;i style=&quot;forced-color-adjust: none; color: rgb(0, 0, 0); font-family: Tahoma; font-size: 12px; font-variant-ligatures: normal; font-variant-caps: normal; font-weight: 400; letter-spacing: normal; orphans: 2; text-align: left; text-indent: 0px; text-transform: none; widows: 2; word-spacing: 0px; -webkit-text-stroke-width: 0px; white-space: normal; background-color: rgb(251, 251, 251); text-decoration-thickness: initial; text-decoration-style: initial; text-decoration-color: initial;&quot;&gt;&lt;font style=&quot;forced-color-adjust: none; color: rgb(255, 102, 102);&quot;&gt;&lt;i style=&quot;color: rgb(0, 0, 0); background-color: rgb(251, 251, 251);&quot;&gt;&lt;font style=&quot;color: rgb(255, 102, 102);&quot;&gt;&lt;i style=&quot;color: rgb(0, 0, 0); background-color: rgb(251, 251, 251);&quot;&gt;&lt;font style=&quot;color: rgb(255, 102, 102);&quot;&gt;&lt;i style=&quot;color: rgb(0, 0, 0); background-color: rgb(251, 251, 251);&quot;&gt;&lt;font style=&quot;color: rgb(255, 102, 102);&quot;&gt;&lt;i style=&quot;color: rgb(0, 0, 0); background-color: rgb(251, 251, 251);&quot;&gt;&lt;font style=&quot;color: rgb(255, 102, 102);&quot;&gt;&lt;i style=&quot;color: rgb(0, 0, 0); background-color: rgb(251, 251, 251);&quot;&gt;&lt;font style=&quot;color: rgb(255, 102, 102);&quot;&gt;&lt;i style=&quot;color: rgb(0, 0, 0); background-color: rgb(251, 251, 251);&quot;&gt;&lt;font style=&quot;color: rgb(255, 102, 102);&quot;&gt;&lt;i style=&quot;color: rgb(0, 0, 0); background-color: rgb(251, 251, 251);&quot;&gt;&lt;font style=&quot;color: rgb(255, 102, 102);&quot;&gt;(8-ой канал)&lt;/font&gt;&lt;/i&gt;&lt;br&gt;&lt;/font&gt;&lt;/i&gt;&lt;/font&gt;&lt;/i&gt;&lt;/font&gt;&lt;/i&gt;&lt;/font&gt;&lt;/i&gt;&lt;/font&gt;&lt;/i&gt;&lt;/font&gt;&lt;/i&gt;&lt;/font&gt;&lt;/i&gt;&lt;/div&gt;&lt;div&gt;&lt;i style=&quot;forced-color-adjust: none; color: rgb(0, 0, 0); font-family: Tahoma; font-size: 12px; font-variant-ligatures: normal; font-variant-caps: normal; font-weight: 400; letter-spacing: normal; orphans: 2; text-align: left; text-indent: 0px; text-transform: none; widows: 2; word-spacing: 0px; -webkit-text-stroke-width: 0px; white-space: normal; background-color: rgb(251, 251, 251); text-decoration-thickness: initial; text-decoration-style: initial; text-decoration-color: initial;&quot;&gt;&lt;font style=&quot;forced-color-adjust: none; color: rgb(255, 102, 102);&quot;&gt;&lt;i style=&quot;color: rgb(0, 0, 0); background-color: rgb(251, 251, 251);&quot;&gt;&lt;font style=&quot;color: rgb(255, 102, 102);&quot;&gt;&lt;i style=&quot;color: rgb(0, 0, 0); background-color: rgb(251, 251, 251);&quot;&gt;&lt;font style=&quot;color: rgb(255, 102, 102);&quot;&gt;&lt;i style=&quot;color: rgb(0, 0, 0); background-color: rgb(251, 251, 251);&quot;&gt;&lt;font style=&quot;color: rgb(255, 102, 102);&quot;&gt;&lt;i style=&quot;color: rgb(0, 0, 0); background-color: rgb(251, 251, 251);&quot;&gt;&lt;font style=&quot;color: rgb(255, 102, 102);&quot;&gt;&lt;i style=&quot;color: rgb(0, 0, 0); background-color: rgb(251, 251, 251);&quot;&gt;&lt;font style=&quot;color: rgb(255, 102, 102);&quot;&gt;&lt;i style=&quot;color: rgb(0, 0, 0); background-color: rgb(251, 251, 251);&quot;&gt;&lt;font style=&quot;color: rgb(255, 102, 102);&quot;&gt;&lt;i style=&quot;color: rgb(0, 0, 0); background-color: rgb(251, 251, 251);&quot;&gt;&lt;font style=&quot;color: rgb(255, 102, 102);&quot;&gt;&lt;i style=&quot;color: rgb(0, 0, 0); background-color: rgb(251, 251, 251);&quot;&gt;&lt;font style=&quot;color: rgb(255, 102, 102);&quot;&gt;&lt;i style=&quot;color: rgb(0, 0, 0); background-color: rgb(251, 251, 251);&quot;&gt;&lt;font style=&quot;color: rgb(255, 102, 102);&quot;&gt;&lt;i style=&quot;color: rgb(0, 0, 0); background-color: rgb(251, 251, 251);&quot;&gt;&lt;font style=&quot;color: rgb(255, 102, 102);&quot;&gt;&lt;i style=&quot;color: rgb(0, 0, 0); background-color: rgb(251, 251, 251);&quot;&gt;&lt;font style=&quot;color: rgb(255, 102, 102);&quot;&gt;(9-ый канал)&lt;/font&gt;&lt;/i&gt;&lt;/font&gt;&lt;/i&gt;&lt;/font&gt;&lt;/i&gt;&lt;/font&gt;&lt;/i&gt;&lt;br&gt;&lt;/font&gt;&lt;/i&gt;&lt;/font&gt;&lt;/i&gt;&lt;/font&gt;&lt;/i&gt;&lt;/font&gt;&lt;/i&gt;&lt;/font&gt;&lt;/i&gt;&lt;/font&gt;&lt;/i&gt;&lt;/font&gt;&lt;/i&gt;&lt;/font&gt;&lt;/i&gt;&lt;/div&gt;&lt;div&gt;&lt;font face=&quot;Tahoma&quot; color=&quot;#ff6666&quot;&gt;&lt;i&gt;orDone&lt;/i&gt;&lt;/font&gt;&lt;/div&gt;&lt;div&gt;&lt;font face=&quot;Tahoma&quot; color=&quot;#ff6666&quot;&gt;&lt;i&gt;orDone*&lt;/i&gt;&lt;i&gt;&lt;br&gt;&lt;/i&gt;&lt;/font&gt;&lt;/div&gt;" style="text;whiteSpace=wrap;html=1;" vertex="1" parent="1">
          <mxGeometry x="1648" y="540" width="80" height="90" as="geometry" />
        </mxCell>
        <mxCell id="nUDMfvgvwmcfRBi6xDTM-53" value="" style="curved=1;endArrow=classic;html=1;rounded=0;entryX=1;entryY=0.5;entryDx=0;entryDy=0;exitX=0;exitY=0.75;exitDx=0;exitDy=0;exitPerimeter=0;" edge="1" parent="1">
          <mxGeometry width="50" height="50" relative="1" as="geometry">
            <mxPoint x="2278" y="895" as="sourcePoint" />
            <mxPoint x="2108" y="810" as="targetPoint" />
            <Array as="points">
              <mxPoint x="2218" y="895" />
              <mxPoint x="2198" y="825" />
              <mxPoint x="2168" y="815" />
            </Array>
          </mxGeometry>
        </mxCell>
        <mxCell id="nUDMfvgvwmcfRBi6xDTM-54" value="" style="endArrow=classic;html=1;rounded=0;entryX=0;entryY=0.156;entryDx=0;entryDy=0;entryPerimeter=0;" edge="1" parent="1" target="nUDMfvgvwmcfRBi6xDTM-55">
          <mxGeometry width="50" height="50" relative="1" as="geometry">
            <mxPoint x="2090" y="804" as="sourcePoint" />
            <mxPoint x="2165" y="805" as="targetPoint" />
          </mxGeometry>
        </mxCell>
        <mxCell id="nUDMfvgvwmcfRBi6xDTM-55" value="&lt;font face=&quot;Tahoma&quot;&gt;&lt;b&gt;or&lt;/b&gt;(&lt;i&gt;channels&lt;/i&gt; ...&amp;lt;-&lt;font style=&quot;color: rgb(102, 102, 255);&quot;&gt;chan&lt;/font&gt; struct{})&lt;/font&gt;" style="swimlane;fontStyle=0;childLayout=stackLayout;horizontal=1;startSize=30;horizontalStack=0;resizeParent=1;resizeParentMax=0;resizeLast=0;collapsible=1;marginBottom=0;whiteSpace=wrap;html=1;" vertex="1" parent="1">
          <mxGeometry x="2218" y="756" width="230" height="90" as="geometry" />
        </mxCell>
        <mxCell id="nUDMfvgvwmcfRBi6xDTM-56" value="&lt;font face=&quot;Tahoma&quot;&gt;&lt;b&gt;orDone***&lt;/b&gt; := make(&lt;font style=&quot;color: rgb(102, 102, 255);&quot;&gt;chan&lt;/font&gt; struct{})&lt;/font&gt;" style="text;strokeColor=none;fillColor=none;align=left;verticalAlign=middle;spacingLeft=4;spacingRight=4;overflow=hidden;points=[[0,0.5],[1,0.5]];portConstraint=eastwest;rotatable=0;whiteSpace=wrap;html=1;" vertex="1" parent="nUDMfvgvwmcfRBi6xDTM-55">
          <mxGeometry y="30" width="230" height="30" as="geometry" />
        </mxCell>
        <mxCell id="nUDMfvgvwmcfRBi6xDTM-57" value="&lt;font face=&quot;Tahoma&quot;&gt;&amp;nbsp;&lt;b&gt;go&lt;/b&gt; func() {...}()&lt;/font&gt;" style="text;strokeColor=none;fillColor=none;align=left;verticalAlign=middle;spacingLeft=4;spacingRight=4;overflow=hidden;points=[[0,0.5],[1,0.5]];portConstraint=eastwest;rotatable=0;whiteSpace=wrap;html=1;" vertex="1" parent="nUDMfvgvwmcfRBi6xDTM-55">
          <mxGeometry y="60" width="230" height="30" as="geometry" />
        </mxCell>
        <mxCell id="nUDMfvgvwmcfRBi6xDTM-58" value="" style="endArrow=classic;html=1;rounded=0;entryX=0.5;entryY=0;entryDx=0;entryDy=0;" edge="1" parent="1">
          <mxGeometry width="50" height="50" relative="1" as="geometry">
            <mxPoint x="2244" y="720" as="sourcePoint" />
            <mxPoint x="2244" y="756" as="targetPoint" />
          </mxGeometry>
        </mxCell>
        <mxCell id="nUDMfvgvwmcfRBi6xDTM-59" value="&lt;font face=&quot;Tahoma&quot;&gt;&lt;b&gt;Срез из 3-х&lt;/b&gt;&lt;/font&gt;&lt;div&gt;&lt;font face=&quot;Tahoma&quot;&gt;&lt;b&gt;каналов&lt;/b&gt;&lt;/font&gt;&lt;/div&gt;" style="text;html=1;align=center;verticalAlign=middle;whiteSpace=wrap;rounded=0;" vertex="1" parent="1">
          <mxGeometry x="2205" y="690" width="83" height="30" as="geometry" />
        </mxCell>
        <mxCell id="nUDMfvgvwmcfRBi6xDTM-60" value="" style="endArrow=classic;html=1;rounded=0;exitX=0.469;exitY=1.022;exitDx=0;exitDy=0;exitPerimeter=0;" edge="1" parent="1">
          <mxGeometry width="50" height="50" relative="1" as="geometry">
            <mxPoint x="2323.7" y="846.0000000000001" as="sourcePoint" />
            <mxPoint x="2324" y="875.34" as="targetPoint" />
          </mxGeometry>
        </mxCell>
        <mxCell id="nUDMfvgvwmcfRBi6xDTM-61" value="&lt;font face=&quot;Tahoma&quot;&gt;&lt;b&gt;orDone***&lt;/b&gt;&lt;/font&gt;" style="text;html=1;align=center;verticalAlign=middle;whiteSpace=wrap;rounded=0;" vertex="1" parent="1">
          <mxGeometry x="2293" y="876" width="60" height="30" as="geometry" />
        </mxCell>
        <mxCell id="nUDMfvgvwmcfRBi6xDTM-62" value="" style="endArrow=classic;html=1;rounded=0;" edge="1" parent="1" source="nUDMfvgvwmcfRBi6xDTM-57">
          <mxGeometry width="50" height="50" relative="1" as="geometry">
            <mxPoint x="2373" y="1016" as="sourcePoint" />
            <mxPoint x="2523" y="833" as="targetPoint" />
          </mxGeometry>
        </mxCell>
        <mxCell id="nUDMfvgvwmcfRBi6xDTM-63" value="&lt;font face=&quot;Tahoma&quot;&gt;&lt;b&gt;func &lt;/b&gt;()&lt;/font&gt;" style="swimlane;fontStyle=0;childLayout=stackLayout;horizontal=1;startSize=30;horizontalStack=0;resizeParent=1;resizeParentMax=0;resizeLast=0;collapsible=1;marginBottom=0;whiteSpace=wrap;html=1;" vertex="1" parent="1">
          <mxGeometry x="2523" y="816" width="280" height="170" as="geometry" />
        </mxCell>
        <mxCell id="nUDMfvgvwmcfRBi6xDTM-64" value="&lt;font style=&quot;&quot; face=&quot;Tahoma&quot;&gt;select {&lt;/font&gt;&lt;div&gt;&lt;font face=&quot;Tahoma&quot;&gt;case &amp;lt;- channels[0]&amp;nbsp;&lt;/font&gt;&lt;i style=&quot;background-color: transparent; color: light-dark(rgb(255, 102, 102), rgb(255, 102, 102)); font-family: Tahoma;&quot;&gt;orDone&lt;/i&gt;&lt;/div&gt;&lt;div&gt;&lt;span style=&quot;font-family: Tahoma;&quot;&gt;case &amp;lt;- channels[0]&amp;nbsp;&lt;/span&gt;&lt;i style=&quot;background-color: transparent; color: rgb(255, 102, 102); font-family: Tahoma;&quot;&gt;orDone*&lt;/i&gt;&lt;font face=&quot;Tahoma&quot;&gt;&lt;br&gt;&lt;/font&gt;&lt;/div&gt;&lt;div&gt;&lt;span style=&quot;font-family: Tahoma;&quot;&gt;case &amp;lt;- channels[0]&amp;nbsp;&lt;/span&gt;&lt;i style=&quot;background-color: transparent; color: rgb(255, 102, 102); font-family: Tahoma;&quot;&gt;orDone**&lt;/i&gt;&lt;span style=&quot;font-family: Tahoma;&quot;&gt;&lt;br&gt;&lt;/span&gt;&lt;/div&gt;&lt;div&gt;&lt;span style=&quot;font-family: Tahoma;&quot;&gt;case &amp;lt;- or(&lt;/span&gt;&lt;span style=&quot;background-color: transparent;&quot;&gt;&lt;font face=&quot;Tahoma&quot;&gt;append(channels[3:], orDone)...&lt;/font&gt;&lt;/span&gt;&lt;span style=&quot;font-family: Tahoma; background-color: transparent; color: light-dark(rgb(0, 0, 0), rgb(255, 255, 255));&quot;&gt;)&lt;/span&gt;&lt;/div&gt;&lt;div&gt;&lt;font style=&quot;&quot; face=&quot;Tahoma&quot;&gt;}&lt;/font&gt;&lt;/div&gt;" style="text;strokeColor=none;fillColor=none;align=left;verticalAlign=middle;spacingLeft=4;spacingRight=4;overflow=hidden;points=[[0,0.5],[1,0.5]];portConstraint=eastwest;rotatable=0;whiteSpace=wrap;html=1;" vertex="1" parent="nUDMfvgvwmcfRBi6xDTM-63">
          <mxGeometry y="30" width="280" height="100" as="geometry" />
        </mxCell>
        <mxCell id="nUDMfvgvwmcfRBi6xDTM-65" value="&lt;font face=&quot;Tahoma&quot;&gt;--------------------------&lt;b&gt;defer&lt;/b&gt;----------------------------&lt;/font&gt;&lt;div&gt;&lt;font face=&quot;Tahoma&quot;&gt;close(&lt;b&gt;orDone***&lt;/b&gt;)&lt;/font&gt;&lt;/div&gt;" style="text;strokeColor=none;fillColor=none;align=left;verticalAlign=middle;spacingLeft=4;spacingRight=4;overflow=hidden;points=[[0,0.5],[1,0.5]];portConstraint=eastwest;rotatable=0;whiteSpace=wrap;html=1;" vertex="1" parent="nUDMfvgvwmcfRBi6xDTM-63">
          <mxGeometry y="130" width="280" height="40" as="geometry" />
        </mxCell>
        <mxCell id="nUDMfvgvwmcfRBi6xDTM-66" value="" style="curved=1;endArrow=classic;html=1;rounded=0;entryX=1;entryY=0.5;entryDx=0;entryDy=0;exitX=0;exitY=0.75;exitDx=0;exitDy=0;exitPerimeter=0;" edge="1" parent="1" source="nUDMfvgvwmcfRBi6xDTM-65" target="nUDMfvgvwmcfRBi6xDTM-61">
          <mxGeometry width="50" height="50" relative="1" as="geometry">
            <mxPoint x="2413" y="1006" as="sourcePoint" />
            <mxPoint x="2463" y="956" as="targetPoint" />
            <Array as="points">
              <mxPoint x="2463" y="976" />
              <mxPoint x="2443" y="906" />
              <mxPoint x="2413" y="896" />
            </Array>
          </mxGeometry>
        </mxCell>
        <mxCell id="nUDMfvgvwmcfRBi6xDTM-67" value="&lt;div&gt;&lt;i style=&quot;background-color: transparent; color: light-dark(rgb(255, 102, 102), rgb(255, 102, 102)); font-family: Tahoma;&quot;&gt;orDone&lt;/i&gt;&lt;/div&gt;&lt;div&gt;&lt;font face=&quot;Tahoma&quot; color=&quot;#ff6666&quot;&gt;&lt;i&gt;orDone*&lt;/i&gt;&lt;i&gt;&lt;br&gt;&lt;/i&gt;&lt;/font&gt;&lt;/div&gt;&lt;div&gt;&lt;font face=&quot;Tahoma&quot; color=&quot;#ff6666&quot;&gt;&lt;i&gt;orDone**&lt;/i&gt;&lt;i&gt;&lt;br&gt;&lt;/i&gt;&lt;/font&gt;&lt;/div&gt;" style="text;whiteSpace=wrap;html=1;" vertex="1" parent="1">
          <mxGeometry x="2318" y="680" width="80" height="60" as="geometry" />
        </mxCell>
        <mxCell id="nUDMfvgvwmcfRBi6xDTM-68" value="" style="curved=1;endArrow=classic;html=1;rounded=0;entryX=1;entryY=0.5;entryDx=0;entryDy=0;" edge="1" parent="1">
          <mxGeometry width="50" height="50" relative="1" as="geometry">
            <mxPoint x="3010" y="990" as="sourcePoint" />
            <mxPoint x="2798" y="920" as="targetPoint" />
            <Array as="points">
              <mxPoint x="2908" y="1005" />
              <mxPoint x="2888" y="935" />
              <mxPoint x="2858" y="925" />
            </Array>
          </mxGeometry>
        </mxCell>
        <mxCell id="nUDMfvgvwmcfRBi6xDTM-69" value="" style="endArrow=classic;html=1;rounded=0;entryX=0;entryY=0.156;entryDx=0;entryDy=0;entryPerimeter=0;" edge="1" parent="1" target="nUDMfvgvwmcfRBi6xDTM-70">
          <mxGeometry width="50" height="50" relative="1" as="geometry">
            <mxPoint x="2780" y="914" as="sourcePoint" />
            <mxPoint x="2855" y="915" as="targetPoint" />
          </mxGeometry>
        </mxCell>
        <mxCell id="nUDMfvgvwmcfRBi6xDTM-70" value="&lt;font face=&quot;Tahoma&quot;&gt;&lt;b&gt;or&lt;/b&gt;(&lt;i&gt;channels&lt;/i&gt; ...&amp;lt;-&lt;font style=&quot;color: rgb(102, 102, 255);&quot;&gt;chan&lt;/font&gt; struct{})&lt;/font&gt;" style="swimlane;fontStyle=0;childLayout=stackLayout;horizontal=1;startSize=30;horizontalStack=0;resizeParent=1;resizeParentMax=0;resizeLast=0;collapsible=1;marginBottom=0;whiteSpace=wrap;html=1;" vertex="1" parent="1">
          <mxGeometry x="2908" y="866" width="230" height="90" as="geometry" />
        </mxCell>
        <mxCell id="nUDMfvgvwmcfRBi6xDTM-71" value="&lt;font face=&quot;Tahoma&quot;&gt;&lt;b&gt;orDone&lt;/b&gt; := make(&lt;font style=&quot;color: rgb(102, 102, 255);&quot;&gt;chan&lt;/font&gt; struct{})&lt;/font&gt;" style="text;strokeColor=none;fillColor=none;align=left;verticalAlign=middle;spacingLeft=4;spacingRight=4;overflow=hidden;points=[[0,0.5],[1,0.5]];portConstraint=eastwest;rotatable=0;whiteSpace=wrap;html=1;" vertex="1" parent="nUDMfvgvwmcfRBi6xDTM-70">
          <mxGeometry y="30" width="230" height="30" as="geometry" />
        </mxCell>
        <mxCell id="nUDMfvgvwmcfRBi6xDTM-72" value="&lt;font face=&quot;Tahoma&quot;&gt;&lt;b&gt;return&lt;/b&gt;&amp;nbsp;&lt;/font&gt;&lt;font face=&quot;Tahoma&quot;&gt;channels[0]&amp;nbsp;&lt;/font&gt;&lt;i style=&quot;background-color: transparent; color: light-dark(rgb(255, 102, 102), rgb(255, 102, 102)); font-family: Tahoma;&quot;&gt;orDone***&lt;/i&gt;" style="text;strokeColor=none;fillColor=none;align=left;verticalAlign=middle;spacingLeft=4;spacingRight=4;overflow=hidden;points=[[0,0.5],[1,0.5]];portConstraint=eastwest;rotatable=0;whiteSpace=wrap;html=1;" vertex="1" parent="nUDMfvgvwmcfRBi6xDTM-70">
          <mxGeometry y="60" width="230" height="30" as="geometry" />
        </mxCell>
        <mxCell id="nUDMfvgvwmcfRBi6xDTM-73" value="" style="endArrow=classic;html=1;rounded=0;entryX=0.5;entryY=0;entryDx=0;entryDy=0;" edge="1" parent="1">
          <mxGeometry width="50" height="50" relative="1" as="geometry">
            <mxPoint x="2934" y="830" as="sourcePoint" />
            <mxPoint x="2934" y="866" as="targetPoint" />
          </mxGeometry>
        </mxCell>
        <mxCell id="nUDMfvgvwmcfRBi6xDTM-74" value="&lt;font face=&quot;Tahoma&quot;&gt;&lt;b&gt;Срез из 1-го&lt;/b&gt;&lt;/font&gt;&lt;div&gt;&lt;font face=&quot;Tahoma&quot;&gt;&lt;b&gt;канала&lt;/b&gt;&lt;/font&gt;&lt;/div&gt;" style="text;html=1;align=center;verticalAlign=middle;whiteSpace=wrap;rounded=0;" vertex="1" parent="1">
          <mxGeometry x="2895" y="800" width="83" height="30" as="geometry" />
        </mxCell>
        <mxCell id="nUDMfvgvwmcfRBi6xDTM-75" value="" style="endArrow=classic;html=1;rounded=0;exitX=0.469;exitY=1.022;exitDx=0;exitDy=0;exitPerimeter=0;" edge="1" parent="1">
          <mxGeometry width="50" height="50" relative="1" as="geometry">
            <mxPoint x="3013.7" y="956.0000000000001" as="sourcePoint" />
            <mxPoint x="3014" y="985.34" as="targetPoint" />
          </mxGeometry>
        </mxCell>
        <mxCell id="nUDMfvgvwmcfRBi6xDTM-82" value="&lt;div&gt;&lt;i style=&quot;color: light-dark(rgb(255, 102, 102), rgb(255, 102, 102)); font-family: Tahoma; background-color: transparent;&quot;&gt;orDone***&lt;/i&gt;&lt;br&gt;&lt;/div&gt;" style="text;whiteSpace=wrap;html=1;" vertex="1" parent="1">
          <mxGeometry x="3000" y="816" width="80" height="30" as="geometry" />
        </mxCell>
        <mxCell id="nUDMfvgvwmcfRBi6xDTM-85" value="" style="curved=1;endArrow=classic;html=1;rounded=0;exitX=0.457;exitY=0.903;exitDx=0;exitDy=0;exitPerimeter=0;entryX=0;entryY=0.289;entryDx=0;entryDy=0;entryPerimeter=0;" edge="1" parent="1" target="nUDMfvgvwmcfRBi6xDTM-64">
          <mxGeometry width="50" height="50" relative="1" as="geometry">
            <mxPoint x="658" y="666" as="sourcePoint" />
            <mxPoint x="2532" y="885" as="targetPoint" />
            <Array as="points">
              <mxPoint x="670" y="735" />
              <mxPoint x="890" y="840" />
              <mxPoint x="1060" y="890" />
              <mxPoint x="1550" y="990" />
              <mxPoint x="2150" y="1050" />
            </Array>
          </mxGeometry>
        </mxCell>
        <mxCell id="nUDMfvgvwmcfRBi6xDTM-86" value="" style="curved=1;endArrow=classic;html=1;rounded=0;exitX=0.457;exitY=0.903;exitDx=0;exitDy=0;exitPerimeter=0;entryX=0;entryY=0.5;entryDx=0;entryDy=0;" edge="1" parent="1" target="nUDMfvgvwmcfRBi6xDTM-64">
          <mxGeometry width="50" height="50" relative="1" as="geometry">
            <mxPoint x="1290" y="766" as="sourcePoint" />
            <mxPoint x="3155" y="975" as="targetPoint" />
            <Array as="points">
              <mxPoint x="1302" y="835" />
              <mxPoint x="1692" y="990" />
              <mxPoint x="2140" y="1060" />
            </Array>
          </mxGeometry>
        </mxCell>
        <mxCell id="nUDMfvgvwmcfRBi6xDTM-87" value="" style="curved=1;endArrow=classic;html=1;rounded=0;exitX=0.457;exitY=0.903;exitDx=0;exitDy=0;exitPerimeter=0;entryX=-0.002;entryY=0.744;entryDx=0;entryDy=0;entryPerimeter=0;" edge="1" parent="1" target="nUDMfvgvwmcfRBi6xDTM-64">
          <mxGeometry width="50" height="50" relative="1" as="geometry">
            <mxPoint x="1970" y="866" as="sourcePoint" />
            <mxPoint x="3203" y="996" as="targetPoint" />
            <Array as="points">
              <mxPoint x="1982" y="935" />
              <mxPoint x="2210" y="1020" />
              <mxPoint x="2370" y="1020" />
            </Array>
          </mxGeometry>
        </mxCell>
      </root>
    </mxGraphModel>
  </diagram>
</mxfile>
